<?xml version="1.0" encoding="utf-8"?>
<svg version="1.1" id="Layer_1" xmlns="http://www.w3.org/2000/svg" xmlns:xlink="http://www.w3.org/1999/xlink" x="0px" y="0px"
	 viewBox="0 0 185 185" style="enable-background:new 0 0 185 185;" xml:space="preserve">
<style type="text/css">
	.st0{display:none;}
	.st1{display:inline;fill:#999999;}
	.st2{display:inline;fill:#FF0000;}
	.st3{display:inline;fill:#E6E6E6;}
	.st4{fill:#E6E6E6;}
</style>
<g class="st0">
	<circle class="st1" cx="92.5" cy="92.5" r="90.5558472"/>
	<circle class="st2" cx="92.5" cy="13.0558119" r="4.75"/>
	<path class="st3" d="M156.4400024,92.4958115c0,35.3200073-28.6199951,63.9500198-63.9400024,63.9500198
		s-63.9400024-28.6300125-63.9400024-63.9500198c0-13.9800415,4.4899902-26.9100342,12.0999756-37.4299889
		c3.4500122-4.7800293,7.5500488-9.0599976,12.1700439-12.7000122c24.0599976,15.5800171,55.2799683,15.5800171,79.3399658,0
		c4.6199951,3.6400146,8.7200317,7.9199829,12.1700439,12.7000122
		C151.9500122,65.5857773,156.4400024,78.51577,156.4400024,92.4958115z"/>
</g>
<path class="st4" d="M162.96315,107.9078598c0.7566528-3.4719162,1.258667-7.0003738,1.4920197-10.5429382h-42.2548294
	c-1.9233093,0-3.4931107-1.5698013-3.5001907-3.5001907v-2.7294235c0.0070801-1.9303818,1.5768814-3.5001831,3.5001907-3.5001831
	h42.2548294c-0.2333069-3.5426102-0.7354126-7.0710678-1.4919891-10.542984
	c-13.4845276-1.7606506-26.5164948-7.8205566-36.8756332-18.1796913s-16.4190369-23.3911057-18.1796875-36.8756332
	c-3.4719162-0.756567-7.0003738-1.2586708-10.542984-1.4919853v42.254837c0,1.9233055-1.5698013,3.4931068-3.5001831,3.5001869
	h-2.7294235c-1.9303894-0.0070801-3.5001907-1.5768814-3.5001907-3.5001869v-42.254837
	c-3.5425644,0.2333584-7.071022,0.7353764-10.5429382,1.4920292c-1.7606888,13.4844856-7.8206024,26.5164604-18.1797333,36.8755913
	C48.553318,69.2715378,35.5213432,75.3314514,22.0368137,77.0921783c-0.756609,3.4718781-1.2586269,7.0003357-1.4920292,10.5429459
	h42.2548332c1.9233513-0.0000458,3.4931526,1.5697556,3.5001869,3.5001831v2.7294235
	c-0.0070724,1.9303894-1.5768356,3.500145-3.5001869,3.5001907H20.5447845
	c0.2333584,3.5425644,0.7354202,7.0710678,1.4920292,10.5429382c13.4844875,1.7606888,26.5164623,7.8206024,36.8755951,18.1797333
	s16.4190445,23.3911057,18.1797333,36.8755875c3.4718704,0.7566223,7.0003738,1.2586823,10.5429382,1.4920349v-42.254837
	c0.0000458-1.9233475,1.5698013-3.4931107,3.5001907-3.5001831h2.7294235
	c1.9304276,0.0070343,3.5002289,1.5768356,3.5001831,3.5001831v42.254837
	c3.5426102-0.2333984,7.0710678-0.7354126,10.5429459-1.4920349c1.7607269-13.4845276,7.8206406-26.5164948,18.1797256-36.8755875
	C136.4466858,115.7284622,149.478653,109.6685486,162.96315,107.9078598z M92.5000229,103.5026016
	c-6.0741119-0.0070801-10.9955444-4.9285126-11.0026245-11.0026245c0.0070801-6.0740204,4.9285583-10.9954987,11.0025787-11.0025787
	c6.0740662,0.0071182,10.9955063,4.9285583,11.0026245,11.0026245
	C103.4955215,98.5740433,98.5740433,103.4955215,92.5000229,103.5026016z"/>
</svg>
