<?xml version="1.0" encoding="utf-8"?>
<svg version="1.1" id="Layer_1" xmlns="http://www.w3.org/2000/svg" xmlns:xlink="http://www.w3.org/1999/xlink" x="0px" y="0px"
	 viewBox="0 0 185 185" style="enable-background:new 0 0 185 185;" xml:space="preserve">
<style type="text/css">
	.st0{fill:#999999;}
	.st1{fill:#FF0000;}
	.st2{fill:#E6E6E6;}
	.st3{display:none;fill:#E6E6E6;}
</style>
<g>
	<circle class="st0" cx="92.5" cy="92.5" r="90.5558472"/>
	<circle class="st1" cx="92.5" cy="13.0558119" r="4.75"/>
	<path class="st2" d="M156.4400024,92.4958115c0,35.3200073-28.6199951,63.9500198-63.9400024,63.9500198
		s-63.9400024-28.6300125-63.9400024-63.9500198c0-13.9800415,4.4899902-26.9100342,12.0999756-37.4299889
		c3.4500122-4.7800293,7.5500488-9.0599976,12.1700439-12.7000122c24.0599976,15.5800171,55.2799683,15.5800171,79.3399658,0
		c4.6199951,3.6400146,8.7200317,7.9199829,12.1700439,12.7000122
		C151.9500122,65.5857773,156.4400024,78.51577,156.4400024,92.4958115z"/>
</g>
<path class="st3" d="M131.4299622,153.2199707c2.9900513-1.9199829,5.8400269-4.0599976,8.5100098-6.3999634l-32-32
	c-1.3599854-1.3599854-1.3599854-3.5800171,0-4.9500122l1.9299927-1.9299927c1.3699951-1.3599854,3.5900269-1.3599854,4.9500122,0
	l32,32c2.3400269-2.6699829,4.4799805-5.5200195,6.4000244-8.5100098
	C144.9299622,120.6500244,139.9999695,107.1500244,139.9999695,92.5s4.9299927-28.1500244,13.2200317-38.9299927
	c-1.9200439-2.9899902-4.0599976-5.8400269-6.4000244-8.5100098l-32,32c-1.3599854,1.3599854-3.5800171,1.3599854-4.9500122,0
	l-1.9299927-1.9299927c-1.3599854-1.3699951-1.3599854-3.5900269,0-4.9500122l32-32
	c-2.6699829-2.3399658-5.5199585-4.4799805-8.5100098-6.3999634C120.6499939,40.0700073,107.1499939,45,92.4999695,45
	c-14.6499634,0-28.1499634-4.9299927-38.9299927-13.2199707c-2.9899902,1.9199829-5.8399658,4.0599976-8.5100098,6.3999634l32,32
	c1.3600464,1.3599854,1.3600464,3.5800171,0,4.9500122l-1.9299927,1.9299927c-1.3699951,1.3599854-3.5899658,1.3599854-4.9500122,0
	l-32-32c-2.3399658,2.6699829-4.4799805,5.5200195-6.3999634,8.5100098
	C40.0699768,64.3499756,44.9999695,77.8499756,44.9999695,92.5s-4.9299927,28.1500244-13.2199707,38.9299927
	c1.9199829,2.9899902,4.0599976,5.8400269,6.3999634,8.5100098l32-32c1.3600464-1.3599854,3.5800171-1.3599854,4.9500122,0
	l1.9299927,1.9299927c1.3600464,1.3699951,1.3600464,3.5900269,0,4.9500122l-32,32
	c2.6700439,2.3399658,5.5200195,4.4799805,8.5100098,6.3999634C64.3500061,144.9299927,77.8500061,140,92.4999695,140
	C107.1499939,140,120.6499939,144.9299927,131.4299622,153.2199707z M84.7200012,100.2800293
	c-4.2900391-4.3000488-4.2900391-11.2600098,0-15.5600586c4.2999878-4.289978,11.2600098-4.289978,15.5599976,0
	c4.289978,4.3000488,4.289978,11.2600098,0,15.5600586C95.980011,104.5700073,89.019989,104.5700073,84.7200012,100.2800293z"/>
</svg>
