<?xml version="1.0" encoding="utf-8"?>
<svg version="1.1" id="Layer_1" xmlns="http://www.w3.org/2000/svg" xmlns:xlink="http://www.w3.org/1999/xlink" x="0px" y="0px"
	 viewBox="0 0 350 350" style="enable-background:new 0 0 350 350;" xml:space="preserve">
<style type="text/css">
	.st0{display:none;}
	.st1{display:inline;fill:#E6E6E6;stroke:#000000;stroke-miterlimit:10;}
	.st2{fill:#CCCCCC;stroke:#000000;stroke-miterlimit:10;}
	.st3{display:none;fill:#FF0000;stroke:#000000;stroke-miterlimit:10;}
	.st4{fill:none;}
	.st5{fill:#FF0000;}
	.st6{fill:#FFFF00;}
</style>
<g class="st0">
	<path class="st1" d="M164.9571075,24.6285629C89.8856888,29.5571518,29.5571499,89.8856964,24.628561,164.9571075
		l-0.0428123,0.7571869h141.1285248V24.5856647L164.9571075,24.6285629z M164.2857208,164.2857208H26.1143303
		C31.3285637,90.5428696,90.5428619,31.3285675,164.2857208,26.1142464V164.2857208z M325.3714294,164.9571075
		c-4.9285889-75.0714111-65.2571106-135.3999634-140.328537-140.3285522l-0.7571716-0.0428982v141.1286316h141.1285248
		L325.3714294,164.9571075z M185.7142792,164.2857208V26.1142464
		c73.7428436,5.2143211,132.9571686,64.4286194,138.171402,138.1714783H185.7142792z M175,168.5714264
		c-3.5428314,0-6.4285736,2.8856659-6.4285736,6.4285736c0,3.5428314,2.8857422,6.4285736,6.4285736,6.4285736
		s6.4285736-2.8857422,6.4285736-6.4285736C181.4285736,171.4570923,178.5428314,168.5714264,175,168.5714264z M175,180
		c-2.7571259,0-5-2.2428589-5-5c0-2.7571259,2.2428741-5,5-5s5,2.2428741,5,5C180,177.7571411,177.7571259,180,175,180z
		 M24.5857487,184.2857208l0.0428123,0.7570953c4.9285889,75.0714111,65.2571259,135.4000244,140.3285522,140.3286133
		l0.7571716,0.0428162V184.2857208H24.5857487z M164.2857208,323.8856812
		c-73.7428589-5.2142334-132.9571533-64.4285583-138.1713867-138.1713867h138.1713867V323.8856812z M184.2857208,184.2857208
		v141.1285248l0.7571716-0.0428162c75.0714264-4.9285889,135.3999481-65.2572021,140.328537-140.3286133l0.0428162-0.7570953
		H184.2857208z M185.7142792,323.8856812V185.7142944h138.171402
		C318.6714478,259.4571228,259.4571228,318.6714478,185.7142792,323.8856812z M325.3714294,164.9571075
		c-4.9285889-75.0714111-65.2571106-135.3999634-140.328537-140.3285522l-0.7571716-0.0428982v141.1286316h141.1285248
		L325.3714294,164.9571075z M185.7142792,164.2857208V26.1142464
		c73.7428436,5.2143211,132.9571686,64.4286194,138.171402,138.1714783H185.7142792z M184.2857208,325.4142456l0.7571716-0.0428162
		c75.0714264-4.9285889,135.3999481-65.2572021,140.328537-140.3286133l0.0428162-0.7570953H184.2857208V325.4142456z
		 M185.7142792,185.7142944h138.171402c-5.2142334,73.7428284-64.4285583,132.9571533-138.171402,138.1713867V185.7142944z
		 M175,168.5714264c-3.5428314,0-6.4285736,2.8856659-6.4285736,6.4285736c0,3.5428314,2.8857422,6.4285736,6.4285736,6.4285736
		s6.4285736-2.8857422,6.4285736-6.4285736C181.4285736,171.4570923,178.5428314,168.5714264,175,168.5714264z M175,180
		c-2.7571259,0-5-2.2428589-5-5c0-2.7571259,2.2428741-5,5-5s5,2.2428741,5,5C180,177.7571411,177.7571259,180,175,180z
		 M24.628561,185.0428162c4.9285889,75.0714111,65.2571259,135.4000244,140.3285522,140.3286133l0.7571716,0.0428162V184.2857208
		H24.5857487L24.628561,185.0428162z M164.2857208,185.7142944v138.1713867
		c-73.7428589-5.2142334-132.9571533-64.4285583-138.1713867-138.1713867H164.2857208z M24.628561,164.9571075l-0.0428123,0.7571869
		h141.1285248V24.5856647l-0.7571716,0.0428982C89.8856888,29.5571518,29.5571499,89.8856964,24.628561,164.9571075z
		 M164.2857208,164.2857208H26.1143303C31.3285637,90.5428696,90.5428619,31.3285675,164.2857208,26.1142464V164.2857208z
		 M349.9570923,171.3999786l-0.0142212-0.6571808L338.5,170.1285248c-0.0714111-2.3285828-0.2000122-4.7713776-0.3857422-7.3999939
		l11.31427-1.7857056l-0.0428162-0.6570892c-0.1714172-2.2285614-0.4142456-4.5714417-0.7428894-7.1571503l-0.0856934-0.6571808
		l-11.4428711,0.5999756c-0.3285522-2.3856964-0.7142944-4.8427887-1.157135-7.3142853l11.0857239-2.9713593l-0.12854-0.642868
		c-0.4143372-2.1857605-0.8857727-4.5000458-1.4714661-7.0428467l-0.1571045-0.6571808l-11.342865,1.8000183
		c-0.5571594-2.2857666-1.2000427-4.6857605-1.9143372-7.142868l10.7142944-4.1142883l-0.18573-0.6428757
		c-0.7570801-2.4713974-1.4856873-4.7142639-2.2285461-6.8428192l-0.2142334-0.6285782l-11.0857544,2.9714508
		c-0.8713989-2.4285889-1.7428894-4.7000504-2.6571045-6.9143219l10.2142334-5.2000198l-0.2571411-0.6142731
		c-0.8143005-1.9857407-1.7714233-4.1428986-2.9285583-6.5856934l-0.2857361-0.5999756l-10.6999817,4.1142044
		c-1.1000061-2.2856827-2.2285461-4.4999466-3.3570862-6.5856934l9.5999451-6.2428513l-0.3142395-0.5856781
		c-1.0714417-1.9571381-2.2428589-3.9999771-3.5857239-6.2428513l-0.342865-0.5714569l-10.2429199,5.2285309
		c-1.2856445-2.0999603-2.6428223-4.171402-4.0427856-6.1999512l8.9142761-7.2142715l-0.3714294-0.5428619
		c-1.2143555-1.7714157-2.5571289-3.628624-4.2286072-5.8428955l-0.3999634-0.5285645l-9.6428528,6.2571487
		c-1.5-1.9428329-3.0571594-3.87146-4.6428528-5.7428818l8.1142578-8.1142769l-0.4285583-0.514267
		c-1.5142822-1.7571144-3.1285706-3.5571289-4.8285522-5.3428421l-0.4428711-0.4857521l-8.9285583,7.2143555
		c-1.7000122-1.7857132-3.4714355-3.5429153-5.2286377-5.2286186l7.2142639-8.9285736l-0.4856567-0.442852
		c-1.7857056-1.7000046-3.5857239-3.3142967-5.3428345-4.8285789l-0.5143433-0.4285545l-8.1142883,8.1142769
		c-1.8571167-1.5856934-3.7856445-3.1428757-5.7427979-4.6571579l6.2571411-9.6285591l-0.5285645-0.3999519
		c-2.2143555-1.6714935-4.0714722-3.0143547-5.8428955-4.2286034l-0.5428467-0.3714428l-7.2142639,8.9142704
		c-2.0428467-1.4142723-4.1142883-2.7571297-6.2000427-4.042881l5.2286072-10.2428322l-0.5714417-0.342844
		c-2.2428894-1.3428593-4.2857361-2.5142994-6.2428589-3.5857277l-0.5856934-0.3142433l-6.2428436,9.5999584
		c-2.1000366-1.12854-4.3143158-2.2571678-6.5857697-3.3571091l4.1142883-10.6999855l-0.5999756-0.2857323
		c-2.4285889-1.1428385-4.5857544-2.1000443-6.5856934-2.9285536l-0.6142731-0.2571316l-5.18573,10.2142324
		c-2.200058-0.9000072-4.485733-1.7714138-6.9286194-2.6571217l2.9714508-11.0857277L232.5,9.6713753
		c-2.0857391-0.7284975-4.3286133-1.4570827-6.8428192-2.2285676l-0.6428833-0.1857214l-4.1142883,10.7142868
		c-2.4571838-0.7142868-4.8571777-1.3570728-7.1428528-1.914238l1.8000031-11.3428593l-0.6571655-0.1571221
		c-2.5571136-0.585763-4.8571014-1.0571289-7.0428467-1.4714704l-0.6428833-0.1285226l-2.9714508,11.0856409
		c-2.471405-0.4428539-4.9284973-0.8285093-7.31427-1.1571398l0.6000519-11.4427834l-0.6571655-0.0857109
		c-2.5714111-0.3286307-4.9142914-0.5714634-7.1571655-0.742885l-0.6570892-0.042899l-1.7857056,11.3143482
		c-2.6286163-0.1857214-5.0715027-0.3143311-7.4000854-0.3857422L179.2571106,0.057118l-0.6570892-0.0142997
		c-2.4142761-0.0571115-4.7857666-0.0571115-7.2000427,0l-0.6570892,0.0142997l-0.6142731,11.4428701
		c-2.3285828,0.0714111-4.7714691,0.2000208-7.4000854,0.3857422l-1.7857056-11.3143482l-0.6570892,0.042899
		c-2.2428741,0.1714216-4.5857544,0.4142543-7.1571655,0.742885l-0.6571655,0.0857109l0.6000519,11.4427834
		c-2.3857727,0.3286304-4.842865,0.7142859-7.31427,1.1571398l-2.9714508-11.0856409l-0.6428833,0.1285226
		c-2.1857452,0.4143414-4.485733,0.8857074-7.0428467,1.4714704l-0.6571655,0.1571221l1.8000031,11.3428593
		c-2.285675,0.5571651-4.6856689,1.1999512-7.1428528,1.914238l-4.1142883-10.7142868l-0.6428757,0.1857214
		C121.8286133,8.2142925,119.5857468,8.9428778,117.5,9.6713753l-0.6285706,0.2143211l2.9714508,11.0857277
		c-2.4428864,0.8857079-4.7142715,1.7571144-6.9143219,2.6571217l-5.2000275-10.2142324l-0.6142731,0.2571316
		c-1.9999466,0.8285093-4.1571045,1.7857151-6.5856934,2.9285536l-0.5999756,0.2857323l4.114296,10.6999855
		c-2.2714691,1.0999413-4.4857407,2.228569-6.5857849,3.3571091l-6.2428513-9.5999584l-0.5856705,0.3142433
		c-1.9571381,1.0714283-3.9999847,2.2428684-6.2428513,3.5857277l-0.5714645,0.342844l5.2286224,10.2428322
		c-2.0857468,1.2857513-4.1714935,2.64291-6.2000427,4.042881l-7.2142639-8.9142704l-0.5428619,0.3714428
		c-1.7857208,1.2142487-3.62854,2.5571098-5.8428955,4.2286034l-0.5285645,0.3999519l6.2571487,9.6285591
		c-1.9571381,1.5142822-3.8856735,3.0714645-5.7427979,4.6571579l-8.1142769-8.1142769l-0.5143509,0.4285545
		c-1.7428169,1.4999809-3.5428314,3.1285744-5.3428459,4.8285789l-0.4856644,0.442852l7.2142677,8.9285736
		c-1.7714157,1.7000008-3.5286179,3.4571152-5.2286186,5.2286186l-8.9285736-7.2143555l-0.442852,0.4857521
		c-1.7000046,1.7857132-3.3142967,3.5857277-4.8285789,5.3428421l-0.4285545,0.514267l8.1142769,8.1142769
		c-1.5856934,1.8572083-3.1428757,3.7857437-4.6428566,5.7428818l-9.6428566-6.2571487l-0.3999557,0.5285645
		c-1.6714935,2.2142715-3.014267,4.0714798-4.2286034,5.8428955l-0.3714428,0.5428619l8.9142704,7.2142715
		c-1.399971,2.0285492-2.7571297,4.1142883-4.0427933,6.1999512L25.5856781,83.81427l-0.3428421,0.5714569
		c-1.3428612,2.2428741-2.5142994,4.2857132-3.5857277,6.2428513l-0.3142452,0.5856781l9.5999584,6.2428513
		c-1.12854,2.1000443-2.2570801,4.3143082-3.3571072,6.5856934l-10.6999874-4.1142044l-0.2857304,0.5999756
		c-1.1571398,2.4285889-2.0999584,4.5856552-2.9285545,6.5856934l-0.2571325,0.6142731l10.2142324,5.2000198
		c-0.9000053,2.1999664-1.7714138,4.4714355-2.6571217,6.9143219l-11.0857277-2.9714508l-0.2142334,0.6285782
		c-0.7285852,2.0856552-1.4571705,4.3285217-2.2285676,6.8428192l-0.1857214,0.6428757l10.7142868,4.1142883
		c-0.7142868,2.4571075-1.3571606,4.8571014-1.9143238,7.142868l-11.3428612-1.8000183l-0.1571221,0.6571808
		c-0.5856757,2.5570984-1.0571287,4.8570862-1.4714704,7.0428467l-0.1285226,0.642868l11.0857286,2.9713593
		c-0.4428539,2.4714966-0.8285961,4.9285889-1.1571398,7.3142853L1.4428743,152.471405l-0.0857108,0.6571808
		c-0.3286307,2.5714111-0.5714635,4.9142761-0.7428851,7.1571503l-0.0428118,0.6570892l11.3142614,1.7857056
		c-0.1857214,2.6286163-0.3143311,5.0714111-0.3857422,7.3999939l-11.4428711,0.6142731l-0.0142125,0.6571808
		C0.0143029,172.6000214,0.0000033,173.7999725,0.0000033,175c0,1.1999512,0.0142997,2.3999939,0.042899,3.5999451
		l0.0142125,0.6571655l11.4428711,0.6142883c0.0714111,2.3285675,0.2000208,4.7714539,0.3857422,7.3999786l-11.3142614,1.7857208
		l0.0428118,0.6571655c0.1714216,2.2428741,0.4142544,4.5857544,0.7428851,7.1571655l0.0857108,0.6570892l11.4428711-0.5999756
		c0.3285437,2.3856812,0.7142859,4.8428802,1.1571398,7.31427l-11.0857286,2.9714508l0.1285226,0.6428833
		c0.4143417,2.1856689,0.8857946,4.485733,1.4714704,7.0428467l0.1571221,0.6571655l11.3428612-1.8000031
		c0.5571632,2.285675,1.200037,4.6856689,1.9143238,7.1428528l-10.7142868,4.1142883l0.1857214,0.6427917
		C8.2142887,228.1713867,8.942874,230.4142609,9.6714592,232.5l0.2142334,0.6285706l11.0857277-2.9714508
		c0.8857079,2.4428864,1.7571163,4.7285767,2.6571217,6.9285431l-10.2142324,5.1857147l0.2571325,0.6142731
		c0.8285961,2.0000458,1.7714148,4.157196,2.9285545,6.5857849l0.2857304,0.5999756l10.6999874-4.1142883
		c1.1000271,2.2714691,2.2285671,4.485733,3.3571072,6.5856934l-9.5999584,6.2428589l0.3142452,0.5857544
		c1.0714283,1.9571228,2.2428665,3.9999695,3.5857277,6.2428589l0.3428421,0.5713501l10.2429199-5.2285156
		c1.2856636,2.0857544,2.6285248,4.1571045,4.0427933,6.2000427l-8.9142704,7.2142639l0.3714428,0.5428467
		c1.2000389,1.7571411,2.5429001,3.6142578,4.2286034,5.8428345l0.3999557,0.5285645l9.6428566-6.2571716
		c1.4857674,1.9429321,3.0571632,3.87146,4.6428566,5.7428894l-8.1142769,8.1142883l0.4285545,0.5142517
		c1.5142822,1.7572021,3.1285744,3.5572205,4.8285789,5.342926l0.442852,0.4856873l8.9285736-7.2142944
		c1.6857033,1.7571411,3.4429054,3.5285339,5.2286186,5.2285461l-7.2142677,8.9285583l0.4856644,0.4428711
		c1.785717,1.7000122,3.5857277,3.3143005,5.3428459,4.8285828l0.5143509,0.4286194l8.1142769-8.1143494
		c1.8714218,1.5857849,3.7999573,3.1428833,5.7427979,4.6428528l-6.2571487,9.6428528l0.5285645,0.4000549
		c2.2143555,1.6713867,4.0714798,3.0142517,5.8428955,4.2286072l0.5428619,0.3713379l7.2142639-8.9142761
		c2.0285492,1.4000854,4.0999985,2.7571411,6.2000427,4.0429077l-5.2286224,10.2428284l0.5714645,0.3428345
		c2.2428665,1.342865,4.2857132,2.5143127,6.2428513,3.5857239l0.5856705,0.3143311l6.2428513-9.6000366
		c2.0857468,1.1286316,4.3000183,2.2571716,6.5857849,3.3571777l-4.114296,10.7000122l0.5999756,0.2857056
		c2.4428864,1.1571655,4.6000443,2.1142578,6.5856934,2.9285583l0.6142731,0.2571411l5.2000275-10.214325
		c2.2142639,0.9143066,4.485733,1.7857056,6.9143219,2.6572266l-2.9714508,11.0856323L117.5,340.3285522
		c2.1285553,0.7428894,4.3714294,1.4714661,6.8428268,2.2285461l0.6428757,0.18573l4.1142883-10.7142944
		c2.4571838,0.7142944,4.8571777,1.3571777,7.1428528,1.9143372l-1.8000031,11.342865l0.6571655,0.1571045
		c2.5428162,0.5856934,4.8571014,1.0571289,7.0428467,1.471405l0.6428833,0.1286011l2.9714508-11.0857239
		c2.471405,0.4428406,4.9284973,0.8285828,7.31427,1.157135l-0.6000519,11.4428711l0.6571655,0.0857239
		c2.5857086,0.3285217,4.9285889,0.5714417,7.1571655,0.7428589l0.6570892,0.0428162l1.7857056-11.3142395
		c2.6286163,0.1856995,5.0715027,0.3142395,7.4000854,0.3857422l0.6142731,11.4427795l0.6570892,0.0142822
		C172.6000061,349.9856873,173.7999573,350,175,350s2.3999939-0.0143127,3.6000214-0.0429077l0.6570892-0.0142822
		l0.6142731-11.4427795c2.3285828-0.0715027,4.7714691-0.2000427,7.4000854-0.3857422l1.7857056,11.3142395l0.6570892-0.0428162
		c2.2285767-0.1714172,4.5714569-0.4143372,7.1571655-0.7428589l0.6571655-0.0857239l-0.6000519-11.4428711
		c2.3857727-0.3285522,4.842865-0.7142944,7.31427-1.157135l2.9714508,11.0857239l0.6428833-0.1286011
		c2.1857452-0.4142761,4.5000305-0.8857117,7.0428467-1.471405l0.6571655-0.1571045l-1.8000031-11.342865
		c2.285675-0.5571594,4.6856689-1.2000427,7.1428528-1.9143372l4.1142883,10.7142944l0.6428833-0.18573
		c2.4713898-0.7570801,4.7142639-1.4856567,6.8428192-2.2285461l0.6285706-0.214325l-2.9714508-11.0856323
		c2.4285889-0.871521,4.700058-1.7429199,6.9143219-2.6572266l5.2000275,10.214325l0.6142731-0.2571411
		c1.9856415-0.8143005,4.142807-1.7713928,6.5856934-2.9285583l0.5999756-0.2857056l-4.1142883-10.7000122
		c2.2857666-1.1000061,4.485733-2.2285461,6.5857697-3.3571777l6.2428436,9.6000366l0.5856934-0.3143311
		c1.9714355-1.0714111,3.9999695-2.2428589,6.2428589-3.5857239l0.5714417-0.3428345l-5.2286072-10.2428284
		c2.1000366-1.2857666,4.1714783-2.6428223,6.2000427-4.0429077l7.2142639,8.9142761l0.5428467-0.3713379
		c1.7571411-1.2000427,3.6142578-2.5429077,5.8428955-4.2286072l0.5285645-0.4000549l-6.2571411-9.6428528
		c1.9428406-1.4856873,3.8713684-3.0570679,5.7427979-4.6428528l8.1142883,8.1143494l0.5143433-0.4286194
		c1.7571106-1.5142822,3.5571289-3.1427917,5.3428345-4.8285828l0.4856567-0.4428711l-7.2142639-8.9285583
		c1.7714233-1.7000122,3.5286255-3.4571228,5.2286377-5.2285461l8.9285583,7.2142944l0.4428711-0.4856873
		c1.6856995-1.7857056,3.31427-3.5857239,4.8285522-5.342926l0.4285583-0.5142517l-8.1142578-8.1142883
		c1.5856934-1.8714294,3.157074-3.7999573,4.6428528-5.7428894l9.6428528,6.2571716l0.3999634-0.5285645
		c1.6856995-2.2285767,3.0285645-4.0856934,4.2286072-5.8428345l0.3714294-0.5428467l-8.9142761-7.2142639
		c1.3999634-2.028656,2.7571411-4.1000061,4.0427856-6.2000427l10.2429199,5.2285156l0.342865-0.5713501
		c1.342865-2.2428894,2.5142822-4.2714233,3.5857239-6.2428589l0.3142395-0.5857544l-9.5999451-6.2428589
		c1.12854-2.0999603,2.2570801-4.3000183,3.3570862-6.5856934l10.6999817,4.1142883l0.2857361-0.5999756
		c1.157135-2.4428864,2.1142578-4.6000366,2.9285583-6.5857849l0.2571411-0.6142731l-10.2142334-5.1999359
		c0.9142151-2.2143555,1.7857056-4.485733,2.6571045-6.9143219l11.0857544,2.9714508L340.3285522,232.5
		c0.7428589-2.1285553,1.4714661-4.3714294,2.2285461-6.8429108l0.18573-0.6427917l-10.7142944-4.1142883
		c0.7142944-2.4571838,1.3571777-4.8571777,1.9143372-7.1428528l11.342865,1.8000031l0.1571045-0.6571655
		c0.5856934-2.5429077,1.0571289-4.8571777,1.4714661-7.0428467l0.12854-0.6428833l-11.0857239-2.9714508
		c0.4428406-2.4713898,0.8285828-4.9285889,1.157135-7.31427l11.4428711,0.5999756l0.0856934-0.6570892
		c0.3286438-2.5857086,0.5714722-4.9285889,0.7428894-7.1571655l0.0428162-0.6571655l-11.31427-1.7857208
		c0.18573-2.6285248,0.3143311-5.0714111,0.3857422-7.3999786l11.4428711-0.6142883l0.0142212-0.6571655
		C349.9856873,177.3999939,350,176.1999512,350,175C350,173.7999725,349.9856873,172.6000214,349.9570923,171.3999786z
		 M348.5428162,177.9142609l-11.4428711,0.5999756l-0.0141907,0.6571655
		c-0.0715027,2.7000275-0.214325,5.5285645-0.4428711,8.6428375l-0.0429077,0.6571808l11.31427,1.7857208
		c-0.1571045,1.8285217-0.3571472,3.7285461-0.6142578,5.7856903l-11.4428711-0.5999756l-0.0857239,0.6570892
		c-0.3571472,2.7714233-0.7999878,5.6285706-1.342865,8.5286102l-0.1285095,0.6428833l11.0857239,2.9713593
		c-0.3428345,1.7857208-0.7285767,3.657135-1.18573,5.6857758l-11.342865-1.8000183l-0.157135,0.6428833
		c-0.6285706,2.6714172-1.37146,5.4713593-2.2285767,8.3571014l-0.1856995,0.6285706L341,225.8714142
		c-0.6142578,1.9714355-1.2000122,3.7999573-1.7999878,5.5428619l-11.0857544-2.9714508l-0.2142334,0.6142731
		c-1.0143127,2.8714447-2.0286255,5.5143433-3.1000366,8.0857544l-0.2571411,0.6142883l10.214325,5.2000122
		c-0.685791,1.6285095-1.4571838,3.3714142-2.3714905,5.3142395l-10.6856689-4.1142883l-0.2857361,0.5857697
		c-1.285675,2.6857147-2.6143188,5.2714233-3.9285889,7.6999359l-0.3142395,0.5857544l9.5999756,6.2428589
		c-0.8857117,1.5999756-1.8428345,3.2570801-2.8999634,5.028595l-10.214325-5.214325l-0.3571472,0.5714722
		c-1.4856873,2.4427795-3.0856628,4.8713684-4.7142639,7.2427673l-0.3857422,0.5428772l8.9285583,7.2143555
		c-1,1.4285583-2.1142578,2.9570618-3.4284973,4.7142639l-9.6286621-6.2571411l-0.3999329,0.5285645
		c-1.7286072,2.2714539-3.5571289,4.5285339-5.4285583,6.7142944l-0.4286499,0.4999695l8.1143494,8.1142578
		c-1.2428284,1.4142761-2.5428772,2.87146-3.9000549,4.3143311l-8.8999634-7.2142639l-0.4571533,0.471344
		c-1.9857178,2.0857544-4.0428772,4.1429138-6.12854,6.1286316l-0.4714355,0.4571533l7.2142639,8.8999634
		c-1.4428711,1.3571777-2.8999634,2.657135-4.3142395,3.8999939l-8.1143494-8.1142883l-0.4999695,0.4285583
		c-2.1857605,1.8714294-4.4428406,3.7000427-6.7142944,5.4286499l-0.5285645,0.3999329l6.2571411,9.6285706
		c-1.7571106,1.3143616-3.2857056,2.4285889-4.7142639,3.4286194l-7.2142639-8.9285889l-0.5428772,0.3857422
		c-2.3714905,1.6285095-4.8000793,3.2285156-7.2428589,4.7142639l-0.5714722,0.3571472l5.214325,10.2142334
		c-1.7714233,1.0572205-3.4286194,2.0143433-5.028595,2.9000549l-6.2428589-9.6000671l-0.5856781,0.3143311
		c-2.4285889,1.31427-5.0142975,2.6428223-7.7000275,3.9285889l-0.5857544,0.2857361l4.1142883,10.6856689
		c-1.9428406,0.9143066-3.6856537,1.6856995-5.3142395,2.3713989l-5.2000275-10.2142334l-0.6142731,0.2571411
		c-2.5714111,1.0714111-5.2143097,2.0857239-8.0856781,3.0999756l-0.6143494,0.214325l2.9714508,11.0857239
		c-1.7428131,0.5999756-3.5714264,1.1856384-5.5428619,1.8000183l-4.1143036-10.7142944l-0.6285706,0.1856384
		c-2.8856506,0.8571777-5.6856842,1.6000671-8.3571014,2.2286377l-0.6428833,0.157135l1.8000183,11.342865
		c-2.0285492,0.4571533-3.8999786,0.842804-5.6856842,1.1856384l-2.9714508-11.0856323l-0.6428833,0.1285095
		c-2.8999481,0.5428772-5.7570953,0.9857178-8.5285339,1.342865l-0.6571655,0.0857239l0.5999756,11.4428711
		c-2.0571442,0.2571106-3.9570923,0.4571533-5.7857056,0.6142578l-1.7857056-11.3142395l-0.6571808,0.0427856
		c-3.1142731,0.2286377-5.9428101,0.37146-8.6428375,0.4428711l-0.6570892,0.0142822l-0.6000519,11.4428711
		c-1.9428406,0.0429077-3.8856812,0.0429077-5.8143005,0l-0.6142731-11.4428711l-0.6570892-0.0142822
		c-2.7000275-0.0714111-5.5285645-0.2142334-8.6428375-0.4428711l-0.6571808-0.0427856l-1.7857056,11.3142395
		c-1.8286133-0.1571045-3.7285614-0.3571472-5.7857056-0.6142578l0.5999756-11.4428711l-0.6571655-0.0857239
		c-2.7714386-0.3571472-5.6427917-0.7999878-8.5285339-1.342865l-0.6428833-0.1285095l-2.9714508,11.0856323
		c-1.7857056-0.3428345-3.657135-0.7284851-5.6856842-1.1856384l1.8000183-11.342865l-0.6428833-0.157135
		c-2.6714172-0.6285706-5.4714508-1.37146-8.3571014-2.2286377l-0.6285706-0.1856384l-4.114296,10.7142944
		c-1.9714355-0.6143799-3.8000488-1.2000427-5.5428619-1.8000183l2.9714508-11.0857239l-0.6143646-0.214325
		c-2.8571396-1.0142517-5.4999619-2.0285645-8.0856705-3.0999756l-0.6142807-0.2571411l-5.2000198,10.2142334
		c-1.6285934-0.6856995-3.3714066-1.4570923-5.3142395-2.3713989l4.1142883-10.6856689l-0.585762-0.2857361
		c-2.6857224-1.2857666-5.271431-2.6143188-7.7000198-3.9285889l-0.5856781-0.3143311l-6.2428513,9.6000671
		c-1.5999908-0.8857117-3.2571793-1.8286133-5.028595-2.9000549l5.2143173-10.2142334l-0.5714645-0.3571472
		c-2.4428024-1.4999695-4.8856888-3.0857544-7.2428665-4.7142639l-0.5428619-0.3857422l-7.2142715,8.9285889
		c-1.4428711-1.0143433-2.9571533-2.1142578-4.7142639-3.4286194l6.2571487-9.6285706l-0.5285645-0.3999329
		c-2.2714691-1.7429199-4.5285492-3.5714417-6.7000046-5.4286499l-0.514267-0.4285583l-8.1143608,8.1142883
		c-1.4142685-1.2285461-2.8713531-2.5428162-4.3142242-3.8999939l7.2142677-8.8999634l-0.4857521-0.4571533
		c-2.085659-2.0000305-4.142807-4.0571899-6.1142426-6.1286316l-0.4571533-0.471344l-8.899971,7.2142639
		c-1.3571587-1.4428711-2.6572075-2.9000549-3.9000587-4.3143311l8.1143608-8.1142578l-0.4286385-0.4999695
		c-1.8714256-2.1857605-3.6856537-4.4428406-5.4285545-6.7142944l-0.3999557-0.5285645l-9.628643,6.2571411
		c-1.3142624-1.7572021-2.4285011-3.2857056-3.4142189-4.7142639l8.9142723-7.2143555l-0.3857422-0.5428772
		c-1.642807-2.3856812-3.2285881-4.81427-4.7142715-7.2427673l-0.3571396-0.5714722l-10.214323,5.214325
		c-1.0714283-1.7857056-2.014246-3.4429016-2.8999538-5.028595l9.5999565-6.2428589l-0.3142433-0.5857544
		c-1.3285599-2.4428101-2.6429081-5.0285187-3.9285698-7.6999359l-0.2857323-0.5857697l-10.6856861,4.1142883
		c-0.9000072-1.9285278-1.6857042-3.68573-2.3714771-5.3142395l10.2143192-5.2000122l-0.2571316-0.6142883
		c-1.0571289-2.5571899-2.0714455-5.2000122-3.1000633-8.0857544l-0.2142334-0.6142731l-11.0857277,2.9714508
		c-0.5856752-1.7143097-1.1857386-3.5428314-1.8000135-5.5428619l10.7142859-4.1143036l-0.1857224-0.6285706
		c-0.8571072-2.8857422-1.5999928-5.6999817-2.2285671-8.3571014l-0.1571217-0.6428833l-11.3428612,1.8000183
		c-0.4571533-2.0286407-0.8428955-3.9000549-1.1857386-5.6857758l11.0857277-2.9713593l-0.1285229-0.6428833
		c-0.5428638-2.9000397-0.9857178-5.7571869-1.3428602-8.5286102l-0.0857115-0.6570892l-11.4428711,0.5999756
		c-0.2571323-2.0571442-0.4571533-3.9571686-0.6000628-5.7856903l11.3000488-1.7857208l-0.0428991-0.6571808
		c-0.2285328-3.0999756-0.3713551-5.9285126-0.4428539-8.6428375l-0.0142126-0.6571655l-11.4428701-0.5999756
		C1.4428743,176.9428406,1.4285747,175.9714203,1.4285747,175s0.0142996-1.9428253,0.0285993-2.9000397l11.4428701-0.6142731
		l0.0142126-0.6571808c0.0714989-2.7142334,0.2143211-5.5427704,0.4428539-8.6428375l0.0428991-0.6570892l-11.3000488-1.7857056
		c0.1429095-1.8286133,0.3429306-3.7286377,0.6000628-5.7857819l11.4428711,0.6000519l0.0857115-0.6571655
		c0.3571424-2.7714386,0.7999964-5.6428833,1.3428602-8.5285339l0.1285229-0.642868l-11.0857277-2.9714508
		c0.3428431-1.7857208,0.7285852-3.6571503,1.1857386-5.6856995l11.3428612,1.8000183l0.1571217-0.642868
		c0.6285744-2.6571198,1.37146-5.4714508,2.2285671-8.357193l0.1857224-0.6285858l-10.7142859-4.1142044
		c0.6285753-2.0000305,1.2143383-3.8286438,1.8000135-5.5428619l11.0857277,2.9713669l0.2142334-0.6142731
		c1.0286179-2.8856583,2.0429344-5.5285645,3.1000633-8.0856781l0.2571316-0.6142731l-10.2143192-5.2000198
		c0.6857729-1.6285934,1.4714699-3.3857117,2.3714771-5.3143311l10.6856861,4.1142883l0.2857323-0.5856781
		c1.2856617-2.6857147,2.6143093-5.271431,3.9285698-7.7000198l0.3142433-0.5856705l-9.5999565-6.2428513
		c0.8857079-1.5857849,1.8285255-3.2428894,2.8999538-5.0286026l10.214323,5.214325l0.3571396-0.5714645
		c1.4856834-2.4285889,3.0714645-4.8571777,4.7142715-7.2428665l0.3857422-0.5428696l-8.9142723-7.2142639
		c0.9999275-1.4428711,2.0999565-2.9571533,3.4142189-4.7142715l9.628643,6.2571487l0.3999557-0.5285645
		c1.7429008-2.2714615,3.5714264-4.5286331,5.4285545-6.6999969l0.4286385-0.5143585l-8.1143608-8.1142731
		c1.2286377-1.4142723,2.5429001-2.8714409,3.9000587-4.3142242l8.899971,7.2142677l0.4571533-0.4857521
		c1.9857368-2.0714455,4.0428848-4.1285934,6.1142426-6.1142426l0.4857521-0.4571533l-7.2142677-8.9000587
		c1.4570847-1.3570709,2.8999557-2.6714211,4.3142242-3.899971l8.1143608,8.1142731l0.514267-0.4285507
		c2.1571579-1.8571281,4.414238-3.6857414,6.7000046-5.4285545l0.5285645-0.4000435l-6.2571487-9.6285553
		c1.7428131-1.3142624,3.2713928-2.4142914,4.7142639-3.4143066l7.2142715,8.9143562l0.5428619-0.3857422
		c2.3857803-1.6428909,4.8142776-3.2285843,7.2428665-4.7142677l0.5714645-0.3571434l-5.2143173-10.2143192
		c1.7857132-1.0714283,3.4429016-2.0142479,5.028595-2.8999538l6.2428513,9.5999565l0.5856781-0.3142433
		c2.4285889-1.3143482,5.0142975-2.6429081,7.7000198-3.9285717l0.585762-0.2857304l-4.1142883-10.6857738
		c1.9285355-0.8999195,3.6856461-1.6857042,5.3142395-2.3713903l5.2000198,10.2143202l0.6142807-0.2571316
		c2.557106-1.0572166,5.2000198-2.0714474,8.0856705-3.1000633l0.6143646-0.2142334l-2.9714508-11.0857277
		c1.7143021-0.585763,3.5428238-1.1714392,5.5428619-1.8000145l4.114296,10.7142868l0.6285706-0.1857224
		c2.8856506-0.8571072,5.6999817-1.5999928,8.3571014-2.2285671l0.6428833-0.1571217l-1.8000183-11.3428612
		c2.0285492-0.4571533,3.8999786-0.8428955,5.6856842-1.1857386l2.9714508,11.0857277l0.6428833-0.1286097
		c2.8857422-0.5428638,5.7570953-0.9857178,8.5285339-1.3428602l0.6571655-0.0857115l-0.5999756-11.4427834
		c2.0571442-0.2572196,3.9570923-0.4571533,5.7857056-0.6000628l1.7857056,11.3000488l0.6571808-0.0428991
		c3.0999756-0.2285328,5.9285126-0.3714418,8.6428375-0.442853l0.6570892-0.0143003L172.0999603,1.45709
		c1.9286194-0.0428118,3.87146-0.0428118,5.8143005,0l0.6000519,11.4428701l0.6570892,0.0143003
		c2.714325,0.0714111,5.5428619,0.2143202,8.6428375,0.442853l0.6571808,0.0428991l1.7857056-11.3000488
		c1.8286133,0.1429095,3.7285614,0.3428433,5.7857056,0.6000628l-0.5999756,11.4427834l0.6571655,0.0857115
		c2.7714386,0.3571424,5.6285858,0.7999964,8.5285339,1.3428602l0.6428833,0.1286097l2.9714508-11.0857277
		c1.7857056,0.3428431,3.657135,0.7285852,5.6856842,1.1857386l-1.8000183,11.3428612l0.6428833,0.1571217
		c2.6571198,0.6285744,5.4714508,1.37146,8.3571014,2.2285671l0.6285706,0.1857224l4.1143036-10.7142868
		c2.0000305,0.6142759,3.8285522,1.2142515,5.5428619,1.8000145l-2.9714508,11.0857277l0.6143494,0.2142334
		c2.8856659,1.028616,5.5285645,2.0428467,8.0856781,3.1000633l0.6142731,0.2571316l5.2000275-10.2143202
		c1.6285858,0.6856861,3.3857117,1.4714708,5.3142395,2.3713903l-4.1142883,10.6857738l0.5857544,0.2857304
		c2.6714325,1.2856636,5.2571411,2.5999241,7.7000275,3.9285717l0.5856781,0.3142433l6.2428589-9.5999565
		c1.5856934,0.8857059,3.2428894,1.8285255,5.028595,2.8999538l-5.214325,10.2143192l0.5714722,0.3571434
		c2.4285889,1.4856834,4.8570862,3.0713768,7.2428589,4.7142677l0.5428772,0.3857422l7.2142639-8.9143562
		c1.4428711,1.0000153,2.9571533,2.1000443,4.7142639,3.4143066l-6.2571411,9.6285553l0.5285645,0.4000435
		c2.2857666,1.7428131,4.5428467,3.5714264,6.7142944,5.4285545l0.4999695,0.4285507l8.1143494-8.1142731
		c1.4142761,1.2428513,2.8713684,2.5429001,4.3142395,3.899971l-7.2142639,8.9000587l0.4714355,0.4571533
		c2.0714417,1.9714355,4.1285095,4.0285835,6.12854,6.1142426l0.4571533,0.4857521l8.8999634-7.2142677
		c1.3571777,1.4427834,2.6714172,2.8999519,3.9000549,4.3142242l-8.1143494,8.1142731l0.4286499,0.5143585
		c1.8571167,2.1713638,3.6856384,4.4285355,5.4285583,6.6999969l0.3999329,0.5285645l9.6286621-6.2571487
		c1.3142395,1.7571182,2.4142761,3.2714005,3.4284973,4.7142715l-8.9285583,7.2142639l0.3857422,0.5428696
		c1.6286011,2.3571777,3.2142944,4.7999725,4.7142639,7.2428665l0.3571472,0.5714645l10.214325-5.214325
		c1.0714111,1.7714157,2.0142517,3.4286041,2.8999634,5.0286026l-9.5999756,6.2428513l0.3142395,0.5856705
		c1.31427,2.4285889,2.6429138,5.0143051,3.9285889,7.7000198l0.2857361,0.5856781l10.6856689-4.1142883
		c0.9143066,1.9429169,1.6856995,3.6857376,2.3714905,5.3143311l-10.214325,5.2000198l0.2571411,0.6142731
		c1.0714111,2.5857086,2.0857239,5.2285309,3.1000366,8.0856781l0.2142334,0.6142731l11.0857544-2.9713669
		c0.5999756,1.7428131,1.18573,3.5714264,1.7999878,5.5428619l-10.7142639,4.1142044l0.1856995,0.6285858
		c0.8571167,2.8857422,1.6000061,5.6857605,2.2285767,8.357193l0.157135,0.642868l11.342865-1.8000183
		c0.4571533,2.0285492,0.8428955,3.8999786,1.18573,5.6856995l-11.0857239,2.9714508l0.1285095,0.642868
		c0.5428772,2.8856506,0.9857178,5.7570953,1.342865,8.5285339l0.0857239,0.6571655l11.4428711-0.6000519
		c0.2571106,2.0571442,0.4571533,3.9571686,0.6142578,5.7857819l-11.31427,1.7857056l0.0429077,0.6570892
		c0.2285461,3.1142731,0.3713684,5.9429169,0.4428711,8.6428375l0.0141907,0.6571808l11.4428711,0.6142731
		c0.0143127,0.9572144,0.028595,1.9286194,0.028595,2.9000397S348.5571289,176.9428406,348.5428162,177.9142609z
		 M185.0428925,24.6285629l-0.7571716-0.0428982v141.1286316h141.1285248l-0.0428162-0.7571869
		C320.4428406,89.8856964,260.1143188,29.5571518,185.0428925,24.6285629z M185.7142792,164.2857208V26.1142464
		c73.7428436,5.2143211,132.9571686,64.4286194,138.171402,138.1714783H185.7142792z M184.2857208,325.4142456l0.7571716-0.0428162
		c75.0714264-4.9285889,135.3999481-65.2572021,140.328537-140.3286133l0.0428162-0.7570953H184.2857208V325.4142456z
		 M185.7142792,185.7142944h138.171402c-5.2142334,73.7428284-64.4285583,132.9571533-138.171402,138.1713867V185.7142944z
		 M175,168.5714264c-3.5428314,0-6.4285736,2.8856659-6.4285736,6.4285736c0,3.5428314,2.8857422,6.4285736,6.4285736,6.4285736
		s6.4285736-2.8857422,6.4285736-6.4285736C181.4285736,171.4570923,178.5428314,168.5714264,175,168.5714264z M175,180
		c-2.7571259,0-5-2.2428589-5-5c0-2.7571259,2.2428741-5,5-5s5,2.2428741,5,5C180,177.7571411,177.7571259,180,175,180z
		 M24.628561,185.0428162c4.9285889,75.0714111,65.2571259,135.4000244,140.3285522,140.3286133l0.7571716,0.0428162V184.2857208
		H24.5857487L24.628561,185.0428162z M164.2857208,185.7142944v138.1713867
		c-73.7428589-5.2142334-132.9571533-64.4285583-138.1713867-138.1713867H164.2857208z M24.628561,164.9571075l-0.0428123,0.7571869
		h141.1285248V24.5856647l-0.7571716,0.0428982C89.8856888,29.5571518,29.5571499,89.8856964,24.628561,164.9571075z
		 M164.2857208,164.2857208H26.1143303C31.3285637,90.5428696,90.5428619,31.3285675,164.2857208,26.1142464V164.2857208z"/>
	<path class="st1" d="M337.0857544,179.171402l0.0141907-0.6571655l11.4428711-0.5999756
		c0.0143127-0.9714203,0.028595-1.9428406,0.028595-2.9142609s-0.0142822-1.9428253-0.028595-2.9000397l-11.4428711-0.6142731
		l-0.0141907-0.6571808c-0.0715027-2.6999207-0.214325-5.5285645-0.4428711-8.6428375l-0.0429077-0.6570892l11.31427-1.7857056
		c-0.1571045-1.8286133-0.3571472-3.7286377-0.6142578-5.7857819l-11.4428711,0.6000519l-0.0857239-0.6571655
		c-0.3571472-2.7714386-0.7999878-5.6428833-1.342865-8.5285339l-0.1285095-0.642868l11.0857239-2.9714508
		c-0.3428345-1.7857208-0.7285767-3.6571503-1.18573-5.6856995l-11.342865,1.8000183l-0.157135-0.642868
		c-0.6285706-2.6714325-1.37146-5.4714508-2.2285767-8.357193l-0.1856995-0.6285858L341,124.1285934
		c-0.6142578-1.9714355-1.2000122-3.8000488-1.7999878-5.5428619l-11.0857544,2.9713669l-0.2142334-0.6142731
		c-1.0143127-2.8571472-2.0286255-5.4999695-3.1000366-8.0856781l-0.2571411-0.6142731l10.214325-5.2000198
		c-0.685791-1.6285934-1.4571838-3.3714142-2.3714905-5.3143311l-10.6856689,4.1142883l-0.2857361-0.5856781
		c-1.285675-2.6857147-2.6143188-5.271431-3.9285889-7.7000198l-0.3142395-0.5856705l9.5999756-6.2428513
		c-0.8857117-1.5999985-1.8285522-3.2571869-2.8999634-5.0286026l-10.214325,5.214325l-0.3571472-0.5714645
		c-1.4999695-2.442894-3.0856628-4.8856888-4.7142639-7.2428665l-0.3857422-0.5428696l8.9285583-7.2142639
		c-1.0142212-1.4428711-2.1142578-2.9571533-3.4284973-4.7142715l-9.6286621,6.2571487l-0.3999329-0.5285645
		c-1.7429199-2.2714615-3.5714417-4.5286331-5.4285583-6.6999969l-0.4286499-0.5143585l8.1143494-8.1142731
		c-1.2286377-1.4142723-2.5428772-2.8714409-3.9000549-4.3142242l-8.8999634,7.2142677l-0.4571533-0.4857521
		c-2.0000305-2.085659-4.0570984-4.142807-6.12854-6.1142426l-0.4714355-0.4571533l7.2142639-8.9000587
		c-1.4428711-1.3570709-2.8999634-2.6571198-4.3142395-3.899971l-8.1143494,8.1142731l-0.4999695-0.4285507
		c-2.1714478-1.8571281-4.4285278-3.6857414-6.7142944-5.4285545l-0.5285645-0.4000435l6.2571411-9.6285553
		c-1.7571106-1.3142624-3.2713928-2.4142914-4.7142639-3.4143066l-7.2142639,8.9143562l-0.5428772-0.3857422
		c-2.3857727-1.6428909-4.81427-3.2285843-7.2428589-4.7142677l-0.5714722-0.3571434l5.214325-10.2143192
		c-1.7857056-1.0714283-3.4429016-2.0142479-5.028595-2.8999538l-6.2428589,9.5999565l-0.5856781-0.3142433
		c-2.4428864-1.3286476-5.028595-2.6429081-7.7000275-3.9285717l-0.5857544-0.2857304l4.1142883-10.6857738
		c-1.9285278-0.8999195-3.6856537-1.6857042-5.3142395-2.3713903l-5.2000275,10.2143202l-0.6142731-0.2571316
		c-2.5571136-1.0572166-5.2000122-2.0714474-8.0856781-3.1000633l-0.6143494-0.2142334l2.9714508-11.0857277
		c-1.7143097-0.585763-3.5428314-1.1857386-5.5428619-1.8000145l-4.1143036,10.7142868L221.12854,19.528553
		c-2.8856506-0.8571072-5.6999817-1.5999928-8.3571014-2.2285671l-0.6428833-0.1571217l1.8000183-11.3428612
		c-2.0285492-0.4571533-3.8999786-0.8428955-5.6856842-1.1857386l-2.9714508,11.0857277l-0.6428833-0.1286097
		c-2.8999481-0.5428638-5.7570953-0.9857178-8.5285339-1.3428602l-0.6571655-0.0857115l0.5999756-11.4427834
		c-2.0571442-0.2572196-3.9570923-0.4571533-5.7857056-0.6000628l-1.7857056,11.3000488l-0.6571808-0.0428991
		c-3.0999756-0.2285328-5.9285126-0.3714418-8.6428375-0.442853l-0.6570892-0.0143003L177.9142609,1.45709
		c-1.9428406-0.0428118-3.8856812-0.0428118-5.8143005,0l-0.6142731,11.4428701l-0.6570892,0.0143003
		c-2.714325,0.0714111-5.5428619,0.2143202-8.6428375,0.442853l-0.6571808,0.0428991l-1.7857056-11.3000488
		c-1.8286133,0.1429095-3.7285614,0.3428433-5.7857056,0.6000628l0.5999756,11.4427834l-0.6571655,0.0857115
		c-2.7714386,0.3571424-5.6427917,0.7999964-8.5285339,1.3428602l-0.6428833,0.1286097l-2.9714508-11.0857277
		c-1.7857056,0.3428431-3.657135,0.7285852-5.6856842,1.1857386l1.8000183,11.3428612l-0.6428833,0.1571217
		c-2.6571198,0.6285744-5.4714508,1.37146-8.3571014,2.2285671l-0.6285706,0.1857224l-4.114296-10.7142868
		c-2.0000381,0.6285753-3.8285599,1.2142515-5.5428619,1.8000145l2.9714508,11.0857277l-0.6143646,0.2142334
		c-2.8856506,1.028616-5.5285645,2.0428467-8.0856705,3.1000633l-0.6142807,0.2571316l-5.2000198-10.2143202
		c-1.6285934,0.6856861-3.385704,1.4714708-5.3142395,2.3713903l4.1142883,10.6857738l-0.585762,0.2857304
		c-2.6857224,1.2856636-5.271431,2.6142235-7.7000198,3.9285717l-0.5856781,0.3142433l-6.2428513-9.5999565
		c-1.5856934,0.8857059-3.2428818,1.8285255-5.028595,2.8999538l5.2143173,10.2143192l-0.5714645,0.3571434
		c-2.4285889,1.4856834-4.8570862,3.0713768-7.2428665,4.7142677l-0.5428619,0.3857422l-7.2142715-8.9143562
		c-1.4428711,1.0000153-2.9714508,2.1000443-4.7142639,3.4143066l6.2571487,9.6285553l-0.5285645,0.4000435
		c-2.2857666,1.7428131-4.5428467,3.5714264-6.7000046,5.4285545l-0.514267,0.4285507l-8.1143608-8.1142731
		c-1.4142685,1.22855-2.8571396,2.5429001-4.3142242,3.899971l7.2142677,8.9000587l-0.4857521,0.4571533
		c-2.0713577,1.9856491-4.1285057,4.0427971-6.1142426,6.1142426l-0.4571533,0.4857521l-8.899971-7.2142677
		c-1.3571587,1.4427834-2.6714211,2.8999519-3.9000587,4.3142242l8.1143608,8.1142731l-0.4286385,0.5143585
		c-1.8571281,2.1713638-3.6856537,4.4285355-5.4285545,6.6999969l-0.3999557,0.5285645l-9.628643-6.2571487
		c-1.3142624,1.7571182-2.4142914,3.2714005-3.4142189,4.7142715l8.9142723,7.2142639l-0.3857422,0.5428696
		c-1.642807,2.3856888-3.2285881,4.8142776-4.7142715,7.2428665l-0.3571396,0.5714645l-10.214323-5.214325
		c-1.0714283,1.7857132-2.014246,3.4428177-2.8999538,5.0286026l9.5999565,6.2428513l-0.3142433,0.5856705
		c-1.3142605,2.4285889-2.6429081,5.0143051-3.9285698,7.7000198l-0.2857323,0.5856781l-10.6856861-4.1142883
		c-0.9000072,1.9286194-1.6857042,3.6857376-2.3714771,5.3143311l10.2143192,5.2000198l-0.2571316,0.6142731
		c-1.0571289,2.5571136-2.0714455,5.2000198-3.1000633,8.0856781l-0.2142334,0.6142731l-11.0857277-2.9713669
		c-0.5856752,1.7142181-1.1714382,3.5428314-1.8000135,5.5428619l10.7142859,4.1142044l-0.1857224,0.6285858
		c-0.8571072,2.8857422-1.5999928,5.7000732-2.2285671,8.357193l-0.1571217,0.642868l-11.3428612-1.8000183
		c-0.4571533,2.0285492-0.8428955,3.8999786-1.1857386,5.6856995l11.0857277,2.9714508l-0.1285229,0.642868
		c-0.5428638,2.8856506-0.9857178,5.7570953-1.3428602,8.5285339l-0.0857115,0.6571655l-11.4428711-0.6000519
		c-0.2571323,2.0571442-0.4571533,3.9571686-0.6000628,5.7857819l11.3000488,1.7857056l-0.0428991,0.6570892
		c-0.2285328,3.1000671-0.3713551,5.9286041-0.4428539,8.6428375l-0.0142126,0.6571808l-11.4428701,0.6142731
		C1.4428743,173.0571747,1.4285747,174.0285797,1.4285747,175s0.0142996,1.9428406,0.0285993,2.9142609l11.4428701,0.5999756
		l0.0142126,0.6571655c0.0714989,2.714325,0.2143211,5.5428619,0.4428539,8.6428375l0.0428991,0.6571808l-11.3000488,1.7857208
		c0.1429095,1.8285217,0.3429306,3.7285461,0.6000628,5.7856903l11.4428711-0.5999756l0.0857115,0.6570892
		c0.3571424,2.7714233,0.7999964,5.6285706,1.3428602,8.5286102l0.1285229,0.6428833l-11.0857277,2.9713593
		c0.3428431,1.7857208,0.7285852,3.657135,1.1857386,5.6857758l11.3428612-1.8000183l0.1571217,0.6428833
		c0.6285744,2.6571198,1.37146,5.4713593,2.2285671,8.3571014l0.1857224,0.6285706l-10.7142859,4.1143036
		c0.614275,2.0000305,1.2143383,3.8285522,1.8000135,5.5428619l11.0857277-2.9714508l0.2142334,0.6142731
		c1.0286179,2.8857422,2.0429344,5.5285645,3.1000633,8.0857544l0.2571316,0.6142883l-10.2143192,5.2000122
		c0.6857729,1.6285095,1.4714699,3.3857117,2.3714771,5.3142395l10.6856861-4.1142883l0.2857323,0.5857697
		c1.2856617,2.6714172,2.6000099,5.2571259,3.9285698,7.6999359l0.3142433,0.5857544l-9.5999565,6.2428589
		c0.8857079,1.5856934,1.8285255,3.2428894,2.8999538,5.028595l10.214323-5.214325l0.3571396,0.5714722
		c1.4856834,2.4284973,3.0714645,4.8570862,4.7142715,7.2427673l0.3857422,0.5428772l-8.9142723,7.2143555
		c0.9857178,1.4285583,2.0999565,2.9570618,3.4142189,4.7142639l9.628643-6.2571411l0.3999557,0.5285645
		c1.7429008,2.2714539,3.5571289,4.5285339,5.4285545,6.7142944l0.4286385,0.4999695l-8.1143608,8.1142578
		c1.2428513,1.4142761,2.5429001,2.87146,3.9000587,4.3143311l8.899971-7.2142639l0.4571533,0.471344
		c1.9714355,2.0714417,4.0285835,4.1286011,6.1142426,6.1286316l0.4857521,0.4571533l-7.2142677,8.8999634
		c1.4428711,1.3571777,2.8999557,2.6714478,4.3142242,3.8999939l8.1143608-8.1142883l0.514267,0.4285583
		c2.1714554,1.8572083,4.4285355,3.68573,6.7000046,5.4286499l0.5285645,0.3999329l-6.2571487,9.6285706
		c1.7571106,1.3143616,3.2713928,2.4142761,4.7142639,3.4286194l7.2142715-8.9285889l0.5428619,0.3857422
		c2.3571777,1.6285095,4.8000641,3.2142944,7.2428665,4.7142639l0.5714645,0.3571472l-5.2143173,10.2142334
		c1.7714157,1.0714417,3.4286041,2.0143433,5.028595,2.9000549l6.2428513-9.6000671l0.5856781,0.3143311
		c2.4285889,1.31427,5.0142975,2.6428223,7.7000198,3.9285889l0.585762,0.2857361l-4.1142883,10.6856689
		c1.9428329,0.9143066,3.6856461,1.6856995,5.3142395,2.3713989l5.2000198-10.2142334l0.6142807,0.2571411
		c2.5857086,1.0714111,5.2285309,2.0857239,8.0856705,3.0999756l0.6143646,0.214325l-2.9714508,11.0857239
		c1.7428131,0.5999756,3.5714264,1.1856384,5.5428619,1.8000183l4.114296-10.7142944l0.6285706,0.1856384
		c2.8856506,0.8571777,5.6856842,1.6000671,8.3571014,2.2286377l0.6428833,0.157135l-1.8000183,11.342865
		c2.0285492,0.4571533,3.8999786,0.842804,5.6856842,1.1856384l2.9714508-11.0856323l0.6428833,0.1285095
		c2.8857422,0.5428772,5.7570953,0.9857178,8.5285339,1.342865l0.6571655,0.0857239l-0.5999756,11.4428711
		c2.0571442,0.2571106,3.9570923,0.4571533,5.7857056,0.6142578l1.7857056-11.3142395l0.6571808,0.0427856
		c3.1142731,0.2286377,5.9428101,0.37146,8.6428375,0.4428711l0.6570892,0.0142822l0.6142731,11.4428711
		c1.9286194,0.0429077,3.87146,0.0429077,5.8143005,0l0.6000519-11.4428711l0.6570892-0.0142822
		c2.7000275-0.0714111,5.5285645-0.2142334,8.6428375-0.4428711l0.6571808-0.0427856l1.7857056,11.3142395
		c1.8286133-0.1571045,3.7285614-0.3571472,5.7857056-0.6142578l-0.5999756-11.4428711l0.6571655-0.0857239
		c2.7714386-0.3571472,5.6285858-0.7999878,8.5285339-1.342865l0.6428833-0.1285095l2.9714508,11.0856323
		c1.7857056-0.3428345,3.657135-0.7284851,5.6856842-1.1856384l-1.8000183-11.342865l0.6428833-0.157135
		c2.6714172-0.6285706,5.4714508-1.37146,8.3571014-2.2286377l0.6285706-0.1856384l4.1143036,10.7142944
		c1.9714355-0.6143799,3.8000488-1.2000427,5.5428619-1.8000183l-2.9714508-11.0857239l0.6143494-0.214325
		c2.8713684-1.0142517,5.514267-2.0285645,8.0856781-3.0999756l0.6142731-0.2571411l5.2000275,10.2142334
		c1.6285858-0.6856995,3.3713989-1.4570923,5.3142395-2.3713989l-4.1142883-10.6856689l0.5857544-0.2857361
		c2.68573-1.2857666,5.2714386-2.6143188,7.7000275-3.9285889l0.5856781-0.3143311l6.2428589,9.6000671
		c1.5999756-0.8857117,3.2571716-1.8428345,5.028595-2.9000549l-5.214325-10.2142334l0.5714722-0.3571472
		c2.4427795-1.4857483,4.8713684-3.0857544,7.2428589-4.7142639l0.5428772-0.3857422l7.2142639,8.9285889
		c1.4285583-1.0000305,2.9571533-2.1142578,4.7142639-3.4286194l-6.2571411-9.6285706l0.5285645-0.3999329
		c2.2714539-1.7286072,4.5285339-3.5572205,6.7142944-5.4286499l0.4999695-0.4285583l8.1143494,8.1142883
		c1.4142761-1.2428589,2.8713684-2.5428162,4.3142395-3.8999939l-7.2142639-8.8999634l0.4714355-0.4571533
		c2.0856628-1.9857178,4.1428223-4.0428772,6.12854-6.1286316l0.4571533-0.471344l8.8999634,7.2142639
		c1.3571777-1.4428711,2.6572266-2.9000549,3.9000549-4.3143311l-8.1143494-8.1142578l0.4286499-0.4999695
		c1.8714294-2.1857605,3.6999512-4.4428406,5.4285583-6.7142944l0.3999329-0.5285645l9.6286621,6.2571411
		c1.3142395-1.7572021,2.4284973-3.2857056,3.4284973-4.7142639l-8.9285583-7.2143555l0.3857422-0.5428772
		c1.6286011-2.3713989,3.2285767-4.7999878,4.7142639-7.2427673l0.3571472-0.5714722l10.214325,5.214325
		c1.0571289-1.7715149,2.0142517-3.4286194,2.8999634-5.028595l-9.5999756-6.2428589l0.3142395-0.5857544
		c1.31427-2.4285126,2.6429138-5.0142212,3.9285889-7.6999359l0.2857361-0.5857697l10.6856689,4.1142883
		c0.9143066-1.9428253,1.6856995-3.68573,2.3714905-5.3142395l-10.214325-5.2000122l0.2571411-0.6142883
		c1.0714111-2.5714111,2.0857239-5.2143097,3.1000366-8.0857544l0.2142334-0.6142731l11.0857544,2.9714508
		c0.5999756-1.7429047,1.18573-3.5714264,1.7999878-5.5428619l-10.7142639-4.1143036l0.1856995-0.6285706
		c0.8571167-2.8857422,1.6000061-5.6856842,2.2285767-8.3571014l0.157135-0.6428833l11.342865,1.8000183
		c0.4571533-2.0286407,0.8428955-3.9000549,1.18573-5.6857758l-11.0857239-2.9713593l0.1285095-0.6428833
		c0.5428772-2.9000397,0.9857178-5.7571869,1.342865-8.5286102l0.0857239-0.6570892l11.4428711,0.5999756
		c0.2571106-2.0571442,0.4571533-3.9571686,0.6142578-5.7856903l-11.31427-1.7857208l0.0429077-0.6571808
		C336.8714294,184.6999664,337.0142517,181.8714294,337.0857544,179.171402z M165.7142792,325.4142456l-0.7571716-0.0428162
		C89.8856888,320.4428406,29.5571499,260.1142273,24.628561,185.0428162l-0.0428123-0.7570953h141.1285248V325.4142456z
		 M165.7142792,165.7142944H24.5857487l0.0428123-0.7571869C29.5571499,89.8856964,89.8856888,29.5571518,164.9571075,24.6285629
		l0.7571716-0.0428982V165.7142944z M175,181.4285736c-3.5428314,0-6.4285736-2.8857422-6.4285736-6.4285736
		c0-3.5429077,2.8857422-6.4285736,6.4285736-6.4285736s6.4285736,2.8856659,6.4285736,6.4285736
		C181.4285736,178.5428314,178.5428314,181.4285736,175,181.4285736z M325.3714294,185.0428162
		c-4.9285889,75.0714111-65.2571106,135.4000244-140.328537,140.3286133l-0.7571716,0.0428162V184.2857208h141.1285248
		L325.3714294,185.0428162z M184.2857208,165.7142944V24.5856647l0.7571716,0.0428982
		c75.0714264,4.9285889,135.3999481,65.2571335,140.328537,140.3285522l0.0428162,0.7571869H184.2857208z"/>
	<path class="st1" d="M164.9571075,24.6285629C89.8856888,29.5571518,29.5571499,89.8856964,24.628561,164.9571075
		l-0.0428123,0.7571869h141.1285248V24.5856647L164.9571075,24.6285629z M164.2857208,164.2857208H26.1143303
		C31.3285637,90.5428696,90.5428619,31.3285675,164.2857208,26.1142464V164.2857208z"/>
	<path class="st1" d="M24.5857487,184.2857208l0.0428123,0.7570953
		c4.9285889,75.0714111,65.2571259,135.4000244,140.3285522,140.3286133l0.7571716,0.0428162V184.2857208H24.5857487z
		 M164.2857208,323.8856812c-73.7428589-5.2142334-132.9571533-64.4285583-138.1713867-138.1713867h138.1713867V323.8856812z"/>
	<path class="st1" d="M184.2857208,184.2857208v141.1285248l0.7571716-0.0428162
		c75.0714264-4.9285889,135.3999481-65.2572021,140.328537-140.3286133l0.0428162-0.7570953H184.2857208z M185.7142792,323.8856812
		V185.7142944h138.171402C318.6714478,259.4571228,259.4571228,318.6714478,185.7142792,323.8856812z"/>
	<path class="st1" d="M325.3714294,164.9571075c-4.9285889-75.0714111-65.2571106-135.3999634-140.328537-140.3285522
		l-0.7571716-0.0428982v141.1286316h141.1285248L325.3714294,164.9571075z M185.7142792,164.2857208V26.1142464
		c73.7428436,5.2143211,132.9571686,64.4286194,138.171402,138.1714783H185.7142792z"/>
	<path class="st1" d="M164.9571075,24.6285629C89.8856888,29.5571518,29.5571499,89.8856964,24.628561,164.9571075
		l-0.0428123,0.7571869h141.1285248V24.5856647L164.9571075,24.6285629z M164.2857208,164.2857208H26.1143303
		C31.3285637,90.5428696,90.5428619,31.3285675,164.2857208,26.1142464V164.2857208z"/>
	<path class="st1" d="M24.5857487,184.2857208l0.0428123,0.7570953
		c4.9285889,75.0714111,65.2571259,135.4000244,140.3285522,140.3286133l0.7571716,0.0428162V184.2857208H24.5857487z
		 M164.2857208,323.8856812c-73.7428589-5.2142334-132.9571533-64.4285583-138.1713867-138.1713867h138.1713867V323.8856812z"/>
	<path class="st1" d="M184.2857208,184.2857208v141.1285248l0.7571716-0.0428162
		c75.0714264-4.9285889,135.3999481-65.2572021,140.328537-140.3286133l0.0428162-0.7570953H184.2857208z M185.7142792,323.8856812
		V185.7142944h138.171402C318.6714478,259.4571228,259.4571228,318.6714478,185.7142792,323.8856812z"/>
	<path class="st1" d="M325.3714294,164.9571075c-4.9285889-75.0714111-65.2571106-135.3999634-140.328537-140.3285522
		l-0.7571716-0.0428982v141.1286316h141.1285248L325.3714294,164.9571075z M185.7142792,164.2857208V26.1142464
		c73.7428436,5.2143211,132.9571686,64.4286194,138.171402,138.1714783H185.7142792z"/>
</g>
<g class="st0">
	<path class="st2" d="M192.3713837,179.5142517c0.8000031-3.0428619,0.7571869-6.157135,0-9.0428772l6.014328-3.0713806
		l5.1143036-3.4429016l-0.5285645-1.2713623l-6.0571289,1.1428375l-6.4285736,2.0857391
		c-1.5142822-2.5858002-3.68573-4.8143616-6.4000549-6.3857574l2.0857391-6.4285736l1.1714478-6.0714264l-1.2714539-0.5285645
		l-3.4714203,5.1286163l-3.0714569,5.9999237c-3.0428619-0.7999878-6.1428375-0.7713928-9.0428009,0l-3.0714569-5.9999237
		l-3.4571228-5.1286163l-1.2857513,0.5285645l1.1714478,6.0571289l2.0857391,6.4285736
		c-2.5857086,1.5142822-4.81427,3.6857452-6.3857574,6.4000549l-6.4428711-2.0857391l-6.0571289-1.1714478l-0.5285645,1.2857513
		l5.1143036,3.4571228l6.0142365,3.0713806c-0.8000031,3.0428619-0.7713928,6.1572266,0,9.0428772l-6.0142365,3.0857544
		l-5.1286011,3.4428253l0.5285645,1.2714539l6.0714264-1.1428375l6.4285736-2.1000519
		c1.4999847,2.6000061,3.68573,4.8285828,6.4000549,6.3999786l-2.0857391,6.4285583l-1.1714478,6.0714417l1.2714539,0.5286407
		l3.4714203-5.1286011l3.0714569-6.014328c3.0427856,0.8000031,6.1428375,0.7857971,9.0428009,0l3.0714569,6.014328
		l3.4571228,5.1286011l1.2714539-0.5286407l-1.1571503-6.0714417l-2.0857391-6.4285583
		c2.6000061-1.5142822,4.8142853-3.6713562,6.4000549-6.3999786l6.4142761,2.1000519l6.0714264,1.1714325l0.5285645-1.2857513
		l-5.1143036-3.4571228L192.3713837,179.5142517z M175,183.5714264c-4.7285614,0-8.5714264-3.8428497-8.5714264-8.5714264
		c0-4.7285614,3.842865-8.5714264,8.5714264-8.5714264s8.5714264,3.842865,8.5714264,8.5714264
		C183.5714264,179.7285767,179.7285614,183.5714264,175,183.5714264z"/>
</g>
<circle class="st3" cx="175" cy="343" r="2.5"/>
<circle class="st4" cx="175" cy="175" r="90.3519058"/>
<circle class="st5" cx="175" cy="175" r="72.1248779"/>
<circle class="st5" cx="63.5558128" cy="175" r="63.941349"/>
<circle class="st6" cx="175" cy="286.4441833" r="90.5558472"/>
<circle class="st6" cx="175" cy="203" r="4.75"/>
<circle class="st5" cx="286.4441833" cy="175" r="63.941349"/>
<circle class="st5" cx="175" cy="63.5558128" r="63.941349"/>
<circle class="st5" cx="175" cy="286.4441833" r="63.941349"/>
<path class="st5" d="M-0.6206508,343.7403564l153.2970276-153.2970276c1.3611755-1.3611755,3.588562-1.3611755,4.9497375,0
	l1.9305573,1.9305573c1.3611755,1.3611755,1.3611755,3.588562,0,4.9497375L6.2596436,350.620636
	c-1.3611794,1.3612061-3.5885634,1.3612061-4.9497428,0l-1.9305516-1.930542
	C-1.98183,347.3289185-1.98183,345.101532-0.6206508,343.7403564z"/>
<path class="st5" d="M6.2596436-0.6206508l153.2970276,153.2970276c1.3611755,1.3611755,1.3611755,3.588562,0,4.9497375
	l-1.9305573,1.9305573c-1.3611755,1.3611755-3.588562,1.3611755-4.9497375,0L-0.6206508,6.2596436
	c-1.3611792-1.3611794-1.3611792-3.5885634,0-4.9497428l1.9305516-1.9305516
	C2.6710801-1.98183,4.8984642-1.98183,6.2596436-0.6206508z"/>
<path class="st5" d="M190.4433289,152.6763763L343.7403564-0.6206508c1.3611755-1.3611792,3.588562-1.3611792,4.9497375,0
	l1.930542,1.9305516c1.3612061,1.3611792,1.3612061,3.5885634,0,4.9497428L197.3236237,159.5566711
	c-1.3611755,1.3611755-3.588562,1.3611755-4.9497375,0l-1.9305573-1.9305573
	C189.0821533,156.2649384,189.0821533,154.0375519,190.4433289,152.6763763z"/>
<path class="st5" d="M197.3236237,190.4433289L350.620636,343.7403564c1.3612061,1.3611755,1.3612061,3.588562,0,4.9497375
	l-1.930542,1.930542c-1.3611755,1.3612061-3.588562,1.3612061-4.9497375,0L190.4433289,197.3236237
	c-1.3611755-1.3611755-1.3611755-3.588562,0-4.9497375l1.9305573-1.9305573
	C193.7350616,189.0821533,195.9624481,189.0821533,197.3236237,190.4433289z"/>
<circle class="st5" cx="175" cy="175" r="11"/>
</svg>
